<?xml version="1.0" encoding="utf-8"?>
<!-- Generator: Adobe Illustrator 22.1.0, SVG Export Plug-In . SVG Version: 6.00 Build 0)  -->
<svg version="1.1" id="Ebene_1" xmlns="http://www.w3.org/2000/svg" xmlns:xlink="http://www.w3.org/1999/xlink" x="0px" y="0px"
	 viewBox="0 0 240 48.3" style="enable-background:new 0 0 240 48.3;" xml:space="preserve">
<style type="text/css">
	.st0{fill:#009BDE;}
	.st1{fill:#F59F00;}
	.st2{fill:#93C019;}
	.st3{fill:#E8423C;}
	.st4{fill:#C5C6C6;}
</style>
<title>logo</title>
<path class="st0" d="M73.5,29.9c0-0.5-0.1-1.1-0.3-1.6c-0.2-0.5-0.6-1-1-1.3c-0.6-0.5-1.3-0.9-2-1.2c-1.1-0.5-2.2-0.9-3.3-1.2
	c-1.5-0.5-2.9-1-4.3-1.6c-1.3-0.6-2.5-1.3-3.6-2.2c-1-0.8-1.8-1.8-2.4-2.9c-0.6-1.2-0.9-2.5-0.9-3.9c0-1.3,0.3-2.7,0.9-3.9
	c0.6-1.2,1.5-2.2,2.6-3c1.2-0.9,2.5-1.5,3.9-1.9c1.6-0.5,3.3-0.7,5-0.7c1.7,0,3.4,0.2,5.1,0.8c1.4,0.5,2.8,1.2,3.9,2.2
	c1.1,0.9,1.9,2,2.5,3.3c0.6,1.3,0.9,2.8,0.9,4.2h-6.9c0-0.7-0.1-1.4-0.3-2c-0.2-0.6-0.6-1.1-1-1.6c-0.5-0.5-1.1-0.8-1.7-1
	c-0.8-0.2-1.6-0.3-2.5-0.3c-0.8,0-1.6,0.1-2.4,0.3c-0.6,0.2-1.2,0.5-1.7,0.8c-0.4,0.3-0.8,0.8-1,1.2c-0.2,0.5-0.3,1-0.3,1.5
	c0,1.2,0.7,2.2,1.7,2.8c1.6,0.9,3.2,1.6,5,2.1c1.7,0.5,3.3,1.1,4.8,1.9c1.3,0.6,2.4,1.4,3.5,2.4c0.9,0.8,1.6,1.8,2.1,3
	c0.5,1.2,0.7,2.4,0.7,3.7c0,1.4-0.3,2.7-0.9,3.9c-0.6,1.1-1.4,2.1-2.5,2.9c-1.2,0.8-2.5,1.5-3.8,1.8c-2.7,0.7-5.6,0.8-8.3,0.3
	c-1.1-0.2-2.2-0.5-3.2-0.9c-1-0.4-1.9-0.9-2.8-1.5c-0.9-0.6-1.6-1.3-2.2-2.1c-0.7-0.8-1.2-1.8-1.5-2.8c-0.4-1.1-0.6-2.3-0.5-3.5h7
	c0,0.9,0.1,1.8,0.5,2.6c0.3,0.7,0.8,1.3,1.3,1.7c0.6,0.5,1.3,0.8,2.1,1c0.9,0.2,1.8,0.3,2.7,0.3c0.8,0,1.6-0.1,2.3-0.3
	c0.6-0.2,1.2-0.4,1.6-0.8c0.4-0.3,0.8-0.7,1-1.2C73.5,30.9,73.5,30.4,73.5,29.9z"/>
<path class="st0" d="M107.2,26.5c0,1.7-0.2,3.4-0.6,5c-0.4,1.4-1,2.8-1.9,4c-0.8,1.1-1.8,2-3,2.7c-1.3,0.7-2.7,1-4.2,1
	c-1.2,0-2.4-0.2-3.5-0.7c-1-0.5-1.9-1.1-2.6-1.9v11.8h-6.7V13.7h6.2l0.2,2.4c0.7-0.9,1.6-1.7,2.7-2.2c1.1-0.5,2.4-0.8,3.6-0.8
	c1.5,0,2.9,0.3,4.2,0.9c1.2,0.6,2.3,1.5,3.1,2.6c0.9,1.2,1.5,2.6,1.9,4c0.4,1.7,0.6,3.4,0.6,5.2V26.5z M100.5,26
	c0-1-0.1-1.9-0.3-2.9c-0.2-0.8-0.4-1.6-0.8-2.3c-0.4-0.6-0.9-1.2-1.5-1.5c-0.7-0.4-1.4-0.6-2.2-0.5c-0.9,0-1.9,0.2-2.7,0.6
	c-0.7,0.4-1.3,1-1.6,1.8v10.2c0.4,0.7,0.9,1.4,1.6,1.8c0.8,0.5,1.8,0.7,2.7,0.7c0.8,0,1.6-0.2,2.3-0.6c0.6-0.4,1.1-0.9,1.5-1.6
	c0.4-0.7,0.7-1.5,0.8-2.4c0.2-0.9,0.3-1.9,0.2-2.8L100.5,26z"/>
<path class="st0" d="M122.8,39.2c-1.8,0-3.6-0.3-5.2-0.9c-1.5-0.6-2.8-1.5-3.9-2.6c-1.1-1.1-1.9-2.4-2.4-3.8
	c-0.6-1.5-0.9-3.1-0.8-4.7v-0.9c0-1.8,0.3-3.5,0.8-5.2c0.5-1.5,1.3-2.9,2.3-4.1c1-1.1,2.3-2.1,3.7-2.7c1.5-0.7,3.2-1,4.8-1
	c1.6,0,3.2,0.3,4.8,0.9c1.3,0.6,2.5,1.4,3.4,2.5c1,1.1,1.7,2.4,2.1,3.9c0.5,1.6,0.7,3.3,0.7,5v2.8h-15.9c0.1,0.8,0.3,1.5,0.7,2.2
	c0.3,0.6,0.7,1.2,1.3,1.7c0.5,0.5,1.1,0.8,1.8,1.1c0.7,0.3,1.5,0.4,2.3,0.4c1.2,0,2.3-0.2,3.4-0.7c1-0.4,1.9-1.2,2.6-2l3.3,3.7
	c-0.4,0.6-0.9,1.2-1.5,1.7c-0.6,0.6-1.4,1.1-2.1,1.5c-0.9,0.4-1.8,0.8-2.8,1C125.1,39,123.9,39.2,122.8,39.2z M122,18.7
	c-0.7,0-1.3,0.1-1.9,0.4c-0.5,0.2-1,0.6-1.4,1.1c-0.4,0.5-0.8,1-1,1.6c-0.3,0.7-0.4,1.4-0.5,2.1h9.3v-0.5c0-0.6-0.1-1.3-0.3-1.9
	c-0.2-0.5-0.4-1-0.8-1.5c-0.4-0.4-0.8-0.8-1.3-1C123.4,18.8,122.7,18.6,122,18.7z"/>
<path class="st0" d="M147.2,33.8c0.6,0,1.1-0.1,1.7-0.3c0.5-0.2,0.9-0.4,1.3-0.8c0.4-0.3,0.7-0.7,0.9-1.2c0.2-0.5,0.3-1,0.3-1.5h6.3
	c0,1.3-0.3,2.5-0.8,3.7c-0.5,1.1-1.3,2.1-2.2,2.9c-1,0.8-2.1,1.5-3.3,1.9c-1.3,0.5-2.7,0.7-4.1,0.7c-1.7,0-3.5-0.3-5.1-1
	c-1.4-0.6-2.6-1.5-3.6-2.7c-1-1.2-1.7-2.5-2.1-4c-0.5-1.6-0.7-3.3-0.7-5v-0.6c0-1.7,0.2-3.4,0.7-5c0.4-1.5,1.2-2.8,2.1-4
	c1-1.2,2.2-2.1,3.6-2.7c1.6-0.7,3.3-1,5.1-1c1.4,0,2.9,0.2,4.2,0.7c1.2,0.4,2.3,1.1,3.3,1.9c0.9,0.9,1.6,2,2.1,3.2
	c0.5,1.3,0.8,2.6,0.8,4h-6.3c0-0.6-0.1-1.2-0.3-1.7c-0.2-0.5-0.5-1-0.8-1.4c-0.4-0.4-0.8-0.7-1.3-0.9c-1.4-0.5-2.9-0.5-4.2,0.2
	c-0.6,0.4-1.1,1-1.4,1.6c-0.4,0.7-0.6,1.5-0.7,2.3c-0.1,0.9-0.2,1.8-0.2,2.7v0.6c0,0.9,0.1,1.8,0.2,2.8c0.1,0.8,0.3,1.6,0.7,2.3
	c0.3,0.6,0.8,1.2,1.4,1.6C145.5,33.6,146.4,33.8,147.2,33.8z"/>
<path class="st0" d="M188.7,23c0,2.3-0.3,4.6-0.9,6.8c-0.6,1.9-1.5,3.6-2.7,5.1c-1.1,1.4-2.6,2.5-4.2,3.2c-1.8,0.8-3.7,1.1-5.6,1.1
	c-1.9,0-3.7-0.4-5.5-1.1c-1.7-0.7-3.1-1.8-4.3-3.2c-1.3-1.5-2.2-3.2-2.8-5.1c-0.7-2.2-1-4.5-1-6.8v-2.1c0-2.3,0.3-4.6,1-6.8
	c0.6-1.9,1.5-3.6,2.8-5.1c1.2-1.4,2.6-2.5,4.3-3.2c1.7-0.8,3.6-1.1,5.5-1.1c1.9,0,3.8,0.4,5.6,1.1c1.6,0.7,3.1,1.8,4.3,3.2
	c1.2,1.5,2.2,3.3,2.7,5.1c0.7,2.2,1,4.5,0.9,6.8L188.7,23z M184.3,20.8c0-1.8-0.2-3.6-0.6-5.3c-0.3-1.4-0.9-2.7-1.8-3.9
	c-0.7-1-1.7-1.8-2.9-2.4c-1.2-0.6-2.5-0.8-3.8-0.8c-1.3,0-2.6,0.3-3.7,0.8c-1.1,0.5-2.1,1.4-2.9,2.4c-0.9,1.2-1.5,2.5-1.8,3.9
	c-0.5,1.7-0.7,3.5-0.6,5.3V23c0,1.8,0.2,3.6,0.7,5.3c0.4,1.4,1,2.7,1.9,3.9c0.8,1,1.7,1.8,2.9,2.4c1.2,0.5,2.4,0.8,3.7,0.8
	c1.3,0,2.7-0.3,3.9-0.8c1.1-0.5,2.1-1.4,2.9-2.4c0.8-1.2,1.4-2.5,1.8-3.9c0.4-1.7,0.6-3.5,0.6-5.3L184.3,20.8z"/>
<path class="st0" d="M215.8,26.5c0,1.7-0.2,3.4-0.6,5.1c-0.4,1.4-1,2.8-1.9,4c-0.8,1.1-1.8,2-3,2.6c-1.3,0.6-2.7,1-4.1,0.9
	c-1.4,0-2.8-0.2-4.1-0.7c-1.1-0.5-2.2-1.2-3-2.2v12h-4.3V13.7h3.9l0.2,2.8c0.8-1,1.9-1.9,3.1-2.4c1.3-0.6,2.7-0.9,4.2-0.8
	c1.4,0,2.9,0.3,4.2,0.9c1.2,0.6,2.3,1.5,3.1,2.6c0.9,1.2,1.5,2.6,1.9,4c0.4,1.7,0.7,3.5,0.6,5.2L215.8,26.5z M211.5,26
	c0-1.2-0.1-2.4-0.4-3.5c-0.2-1-0.6-2-1.2-2.9c-0.5-0.8-1.2-1.5-2.1-2c-0.9-0.5-2-0.8-3-0.7c-0.7,0-1.3,0.1-2,0.2
	c-0.6,0.2-1.1,0.4-1.6,0.7c-0.5,0.3-0.9,0.7-1.3,1.1c-0.4,0.4-0.7,0.9-1,1.4v12c0.3,0.5,0.6,1,1,1.4c0.4,0.4,0.8,0.8,1.3,1.1
	c0.5,0.3,1,0.6,1.6,0.7c0.7,0.2,1.3,0.3,2,0.3c1,0,2.1-0.2,3-0.7c0.8-0.5,1.6-1.2,2.1-2c0.6-0.9,1-1.9,1.2-2.9
	c0.3-1.2,0.4-2.3,0.4-3.5V26z"/>
<path class="st0" d="M235.7,32.1c0-0.4-0.1-0.9-0.2-1.3c-0.2-0.4-0.5-0.8-0.8-1.1c-0.5-0.4-1.1-0.8-1.7-1c-1-0.4-2-0.6-3-0.9
	c-1.3-0.2-2.5-0.6-3.7-1c-1-0.3-2-0.8-2.8-1.4c-0.7-0.5-1.4-1.2-1.8-2c-0.4-0.8-0.7-1.8-0.6-2.7c0-1,0.2-1.9,0.7-2.8
	c0.4-0.9,1.1-1.7,1.9-2.3c0.9-0.7,1.8-1.2,2.9-1.6c1.2-0.4,2.5-0.6,3.8-0.6c1.4,0,2.7,0.2,4,0.6c1.1,0.4,2.1,0.9,3,1.7
	c0.8,0.7,1.4,1.5,1.9,2.4c0.4,0.9,0.6,2,0.6,3h-4.3c0-0.5-0.1-1.1-0.4-1.5c-0.2-0.5-0.6-1-1-1.4c-0.5-0.4-1-0.8-1.6-1
	c-0.7-0.3-1.5-0.4-2.2-0.4c-0.8,0-1.5,0.1-2.3,0.3c-0.6,0.2-1.1,0.5-1.5,0.8c-0.4,0.3-0.7,0.7-0.9,1.2c-0.2,0.4-0.3,0.9-0.3,1.4
	c0,0.4,0.1,0.8,0.2,1.2c0.2,0.4,0.5,0.8,0.9,1c0.6,0.4,1.1,0.6,1.8,0.8c0.9,0.3,1.9,0.6,2.9,0.8c1.4,0.3,2.7,0.7,4,1.2
	c1,0.4,1.9,0.9,2.8,1.6c0.7,0.5,1.3,1.2,1.6,2c0.4,0.8,0.6,1.8,0.5,2.7c0,1-0.2,2.1-0.7,3c-0.5,0.9-1.1,1.7-1.9,2.3
	c-0.9,0.7-2,1.2-3.1,1.5c-1.3,0.4-2.6,0.6-3.9,0.5c-1.5,0-3-0.2-4.4-0.7c-1.2-0.4-2.3-1-3.2-1.8c-0.8-0.7-1.5-1.6-2-2.6
	c-0.4-0.9-0.7-2-0.7-3h4.3c0,1.5,0.8,2.8,2.1,3.6c0.6,0.4,1.2,0.6,1.9,0.8c0.7,0.1,1.3,0.2,2,0.2c0.8,0,1.6-0.1,2.3-0.3
	c0.6-0.2,1.2-0.4,1.7-0.8c0.4-0.3,0.8-0.7,1-1.1C235.6,33,235.7,32.5,235.7,32.1z"/>
<path class="st1" d="M12.2,17.8c0.8,0,1.4-0.6,1.4-1.3c0-0.8-0.6-1.4-1.3-1.4s-1.4,0.6-1.4,1.3c0,0,0,0,0,0
	C10.9,17.2,11.5,17.8,12.2,17.8z"/>
<path class="st2" d="M16.8,0.6c-0.8,0-1.4,0.6-1.4,1.4c0,0.8,0.6,1.4,1.4,1.4c0.8,0,1.4-0.6,1.4-1.4c0,0,0,0,0,0
	C18.2,1.2,17.6,0.6,16.8,0.6z"/>
<path class="st3" d="M30.1,15.7c0.7,0,1.4-0.6,1.4-1.4S30.9,13,30.1,13s-1.4,0.6-1.4,1.3C28.8,15.1,29.4,15.7,30.1,15.7
	C30.1,15.7,30.1,15.7,30.1,15.7z"/>
<path class="st4" d="M2.9,18.6C4,12.3,8.1,6.9,14,4.2c-0.5-0.7-0.8-1.5-0.9-2.3l0,0c-6.8,3-11.6,9.2-12.7,16.5
	c0.3-0.1,0.6-0.1,0.9-0.1C1.9,18.3,2.4,18.4,2.9,18.6z"/>
<path class="st4" d="M37.5,6.4C33.4,2.3,27.8,0,22,0c-0.6,0-1.3,0-1.9,0.1c0.3,0.5,0.5,1.2,0.5,1.8c0,0.2,0,0.4-0.1,0.7
	c0.5,0,1-0.1,1.5-0.1c1.2,0,2.4,0.1,3.6,0.3l-1.7,6.8c-0.6-0.1-1.3-0.2-1.9-0.2c-3.2,0-6.2,1.2-8.5,3.4c0.8,0.3,1.5,0.8,2,1.6
	c1.8-1.6,4.1-2.5,6.5-2.5c0.4,0,0.8,0,1.3,0.1l-1.7,6.5c-0.8,0.1-1.5,0.4-2.1,1c-1.4,1.4-1.4,3.6,0,4.9c1.4,1.4,3.6,1.4,4.9,0
	c0.5-0.5,0.8-1.1,0.9-1.7l6.5-1.7c0,0.3,0.1,0.6,0.1,0.9c0,5.5-4.6,10-10.1,9.9c-2.6,0-5.1-1-6.9-2.8c-2.3-2.3-3.3-5.7-2.7-8.9
	c-0.9,0-1.7-0.3-2.4-0.9c-1.5,6.7,2.7,13.4,9.4,14.9s13.4-2.7,14.9-9.4c0.2-0.9,0.3-1.8,0.3-2.8c0-0.5,0-1-0.1-1.6l6.7-1.7
	c1.8,10.6-5.2,20.6-15.8,22.5C14.8,43,4.8,35.9,2.9,25.4c0,0,0,0,0,0c-0.5,0.2-1,0.4-1.6,0.4c-0.3,0-0.6,0-0.9-0.1
	c2,11.9,13.3,19.9,25.3,17.9s19.9-13.3,17.9-25.3C42.9,13.8,40.7,9.6,37.5,6.4z M22.7,22.6c-0.4,0.4-1,0.4-1.4,0
	c-0.4-0.4-0.4-1,0-1.4c0.2-0.2,0.4-0.3,0.7-0.3c0.6,0,1,0.5,1,1C23,22.2,22.9,22.4,22.7,22.6z M25,20.2c-0.1-0.3-0.3-0.5-0.5-0.7
	c-0.1-0.1-0.3-0.3-0.5-0.4l4-15.6c6,1.9,10.7,6.7,12.5,12.7L25,20.2z"/>
<path class="st0" d="M1.4,23.3c0.8,0,1.4-0.6,1.4-1.4c0-0.8-0.6-1.4-1.4-1.4C0.6,20.6,0,21.2,0,22c0,0,0,0,0,0
	C0,22.7,0.6,23.3,1.4,23.3z"/>
</svg>
